<mxfile host="app.diagrams.net" modified="2023-10-15T21:09:39.612Z" agent="Mozilla/5.0 (Windows NT 10.0; Win64; x64; rv:109.0) Gecko/20100101 Firefox/118.0" version="22.0.4" etag="sZq3C8-0ehsrwcA3ZKzM" type="github">
  <diagram name="Page-1" id="0B7wwBSRIAW7fpHa0ntU">
    <mxGraphModel>
      <root>
        <mxCell id="0" />
        <mxCell id="1" parent="0" />
      </root>
    </mxGraphModel>
  </diagram>
</mxfile>
